<svg width="40" height="40" viewBox="0 0 40 40" fill="none" xmlns="http://www.w3.org/2000/svg">
<path d="M27.9997 18.8067C27.9997 14.7135 24.3193 11.4472 20.2725 11.8946" stroke="#484848" stroke-width="1.5" stroke-linecap="round" stroke-linejoin="round"/>
<path d="M24.9088 18.808C24.9088 16.5335 22.7006 14.7186 20.2725 14.9672" stroke="#484848" stroke-width="1.5" stroke-linecap="round" stroke-linejoin="round"/>
<circle opacity="0.8" cx="20" cy="20" r="19.5" stroke="#484848"/>
<path d="M25.9995 25.2533V27.3149C26.0004 27.5063 25.9574 27.6958 25.8732 27.8711C25.7891 28.0465 25.6657 28.2039 25.5109 28.3333C25.3561 28.4627 25.1734 28.5612 24.9744 28.6225C24.7754 28.6838 24.5646 28.7066 24.3554 28.6894C22.0346 28.4596 19.8053 27.737 17.8467 26.5796C16.0244 25.5245 14.4794 24.1168 13.3215 22.4563C12.0469 20.6635 11.2537 18.6224 11.0061 16.4982C10.9873 16.3082 11.0121 16.1166 11.0789 15.9358C11.1457 15.755 11.2532 15.5888 11.3944 15.4479C11.5355 15.3069 11.7074 15.1943 11.8989 15.1173C12.0905 15.0402 12.2976 15.0002 12.507 15.0001H14.7696C15.1356 14.9968 15.4904 15.1149 15.7679 15.3324C16.0455 15.5498 16.2267 15.8518 16.278 16.1821C16.3734 16.8418 16.5506 17.4897 16.8059 18.1131C16.9074 18.3591 16.9293 18.6264 16.8692 18.8834C16.809 19.1404 16.6693 19.3763 16.4665 19.5632L15.5087 20.4359C16.5823 22.1564 18.1457 23.5809 20.0338 24.5592L20.9917 23.6865C21.1967 23.5017 21.4556 23.3744 21.7377 23.3195C22.0197 23.2647 22.3131 23.2847 22.583 23.3772C23.2673 23.6099 23.9782 23.7712 24.7023 23.8583C25.0687 23.9054 25.4033 24.0735 25.6424 24.3307C25.8816 24.5879 26.0087 24.9163 25.9995 25.2533Z" stroke="#484848" stroke-width="1.5" stroke-linecap="round" stroke-linejoin="round"/>
</svg>
